# xmcd
#
# Track frame offsets:
#	150
#	19462
#	37312
#	54164
#	70244
#	92701
#	111699
#	129920
#	146985
#	174683
#	193664
#
# Disc length: 2860 seconds
#
# Revision: 1
# Processed by: cddbd v1.5.2PL0 Copyright (c) Steve Scherf et al.
# Submitted via: audiograbber 1.83.01
#
DISCID=ab0b2a0b
DTITLE=OneRepublic - Waking up - OneRepublic
DYEAR=2004
DGENRE=Pop
TTITLE0=OneRepublic - Made for you
TTITLE1=OneRepublic - All the right moves
TTITLE2=OneRepublic - Secrets
TTITLE3=OneRepublic - Everybody loves me
TTITLE4=OneRepublic - Missing Persons 1 and 2
TTITLE5=OneRepublic - Good life
TTITLE6=OneRepublic - All this time
TTITLE7=OneRepublic - Fear
TTITLE8=OneRepublic - Waking up
TTITLE9=OneRepublic - Marchin on
TTITLE10=OneRepublic - Lullaby
EXTD=
EXTT0=
EXTT1=
EXTT2=
EXTT3=
EXTT4=
EXTT5=
EXTT6=
EXTT7=
EXTT8=
EXTT9=
EXTT10=
PLAYORDER=
